<?xml version="1.0" encoding="utf-8"?><svg viewBox="0 0 51 51" xmlns="http://www.w3.org/2000/svg" xmlns:xlink="http://www.w3.org/1999/xlink"><style>:root>svg{display:none}:root>svg:target{display:block}</style><svg viewBox="0 0 24 11.4" id="arrow" xmlns="http://www.w3.org/2000/svg"><path d="M18.3 11.4L16.9 10l3.3-3.3H0v-2h20.2l-3.3-3.3L18.3 0 24 5.7z"/></svg><svg viewBox="0 0 24 11.4" id="arrow-long" xmlns="http://www.w3.org/2000/svg"><path d="M18.3 11.4L16.9 10l3.3-3.3H0v-2h20.2l-3.3-3.3L18.3 0 24 5.7z"/></svg><svg viewBox="0 0 22 22" id="calendar" xmlns="http://www.w3.org/2000/svg"><path d="M22 22H0V2.4h3v2H2V20h18V4.4h-1v-2h3zM6 0H4v6.6h2zm12 0h-2v6.6h2zM8 9H4v2h4zm5 0H9v2h4zm5 0h-4v2h4zM8 12.3H4v2h4zm5 0H9v2h4zm5 0h-4v2h4zM8 15.6H4v2h4zm5 0H9v2h4zm5 0h-4v2h4zM15 2.4H7v2h8z"/></svg><svg viewBox="0 0 22 22" id="cart" xmlns="http://www.w3.org/2000/svg"><path d="M21.9 5.7l-2 8a1.077 1.077 0 01-1 .8H8a1.063 1.063 0 01-1-.9L6 5.8 4.4 2.5H1a.945.945 0 01-1-1 .945.945 0 011-1h4a.961.961 0 01.9.6l1.7 3.4H21a.945.945 0 011 1c0 .1 0 .2-.1.2zm-13.8.8l.7 6h9.3l1.5-6zm-.1 11a2 2 0 11-2 2 2.006 2.006 0 012-2zm11 0a2 2 0 11-2 2 2.006 2.006 0 012-2z"/></svg><svg viewBox="0 0 22 22" id="certificate" xmlns="http://www.w3.org/2000/svg"><path d="M11 21.816L8.643 19.8l-3.051.569-1.032-2.928-2.927-1.033.567-3.051L.184 11 2.2 8.643l-.567-3.051L4.56 4.56l1.032-2.927 3.051.567L11 .184 13.357 2.2l3.051-.569 1.033 2.929 2.926 1.032-.567 3.051L21.816 11 19.8 13.357l.569 3.051-2.926 1.033-1.033 2.926-3.053-.567zm-1.783-4.159L11 19.184l1.783-1.527 2.309.431.781-2.215 2.215-.781-.431-2.309L19.184 11l-1.527-1.783.431-2.309-2.215-.781-.781-2.214-2.309.43L11 2.816 9.217 4.343l-2.309-.43-.781 2.214-2.214.781.43 2.309L2.816 11l1.527 1.783-.43 2.309 2.214.781.781 2.215zm6.553-8.606l-1.415-1.414-4.6 4.6-2.105-2.1-1.42 1.414 3.52 3.519z"/></svg><svg viewBox="0 0 11.466 9.15" id="checkbox" xmlns="http://www.w3.org/2000/svg"><path d="M.733 3.902l3.5 3.777 6.5-7"/></svg><svg viewBox="0 0 20 20" id="close" xmlns="http://www.w3.org/2000/svg"><path d="M11.4 10L20 1.4V0h-1.4L10 8.6 1.4 0H0v1.4L8.6 10 0 18.6V20h1.4l8.6-8.6 8.6 8.6H20v-1.4z"/></svg><svg viewBox="0 0 22 22" id="compare" xmlns="http://www.w3.org/2000/svg"><path d="M3.5 21a.945.945 0 001-1v-6a.945.945 0 00-1-1 .945.945 0 00-1 1v6a.945.945 0 001 1zm5 0a.945.945 0 001-1V7a.945.945 0 00-1-1 .945.945 0 00-1 1v13a.945.945 0 001 1zm5 0a.945.945 0 001-1V10a1 1 0 00-2 0v10a.945.945 0 001 1zm5 0a.945.945 0 001-1V2a1 1 0 00-2 0v18a.945.945 0 001 1z"/></svg><svg viewBox="0 0 51 51" id="consultant" xmlns="http://www.w3.org/2000/svg"><path fill="#EE8D10" d="M25.5 11.7a5.911 5.911 0 015.9 5.9 5.9 5.9 0 01-11.8 0 5.911 5.911 0 015.9-5.9zm9.3 22.1c0 3-4.2 5.5-9.3 5.5s-9.3-2.5-9.3-5.5v-.5a7.4 7.4 0 016-7.3l3.3 5.2 3.3-5.2a7.4 7.4 0 016 7.3v.5z"/><path d="M25.5 24.2a6.7 6.7 0 116.7-6.7 6.7 6.7 0 01-6.7 6.7zm0-11.7a5.1 5.1 0 105.1 5.1 5.121 5.121 0 00-5.1-5.1zm0 27.6c-5.7 0-10.1-2.8-10.1-6.3v-.5a8.328 8.328 0 016.7-8.1l.5-.1 2.9 4.6 2.9-4.6.5.1a8.168 8.168 0 016.7 8.1v.5c0 3.6-4.4 6.3-10.1 6.3zm-3.6-13.2a6.632 6.632 0 00-4.9 6.4v.5c0 2.6 3.9 4.7 8.5 4.7s8.5-2.2 8.5-4.7v-.5a6.632 6.632 0 00-4.9-6.4l-3.6 5.7zm3.6 23.3a25.541 25.541 0 01-6.1-.8l-.6-.2v-5a12.2 12.2 0 01-1.7-.7L13.6 47l-.5-.3a26.178 26.178 0 01-8.7-8.5l-.3-.5 3.5-3.5a14.167 14.167 0 01-.8-1.8h-5l-.2-.6a24.029 24.029 0 01-.2-12.2l.1-.6h4.9a18.028 18.028 0 01.8-2.1l-3.5-3.5.4-.4a26.178 26.178 0 018.5-8.7l.5-.3 3.5 3.5a15.956 15.956 0 012.3-1v-5l.6-.2a24.776 24.776 0 0112.1 0l.6.2v5a22.877 22.877 0 012.3 1L37.9 4l.5.3A25.555 25.555 0 0147 13l.3.5-3.5 3.5a18.029 18.029 0 01.8 2.1h4.9l.1.6a23.625 23.625 0 01-.2 12.1l-.2.6h-5a14.167 14.167 0 01-.8 1.8l3.5 3.5-.3.5a25.28 25.28 0 01-8.7 8.5l-.5.3-3.5-3.5a8.651 8.651 0 01-1.7.7v5l-.6.2a24.894 24.894 0 01-6.1.8zM20.4 48a21.975 21.975 0 0010.2 0v-4.9l.6-.2a18.611 18.611 0 002.5-1l.5-.3 3.5 3.5A23.544 23.544 0 0045 38l-3.4-3.4.3-.5c.5-.9.8-1.8 1.2-2.7l.2-.5h4.9a22.963 22.963 0 00.2-10.1h-4.9l-.2-.6a14.762 14.762 0 00-1.2-2.9l-.3-.5 3.5-3.5A24.71 24.71 0 0038.2 6l-3.4 3.4-.5-.3a16.924 16.924 0 00-3.1-1.3l-.6-.2V2.8a21.974 21.974 0 00-10.2 0v4.9l-.6.2a16.924 16.924 0 00-3.1 1.3l-.5.3L12.8 6a23.544 23.544 0 00-7.1 7.3l3.5 3.5-.2.5a14.763 14.763 0 00-1.2 2.9l-.2.6H2.8A22.963 22.963 0 003 30.9h4.9l.2.5a15.95 15.95 0 001.2 2.7l.3.5L6.2 38a23.544 23.544 0 007.3 7.1l3.5-3.5.5.3a13.043 13.043 0 002.5 1l.6.2V48z"/></svg><svg viewBox="0 0 22 22" id="delete" xmlns="http://www.w3.org/2000/svg"><path d="M21 3.8H1v2h2.1v15.4H19V5.8h2zm-4.1 15.5H5.1V5.8H17v13.5zM8.9.7h4.2v2H8.9z"/><path d="M10 8.7h2v7.7h-2zM6.5 8.7h2v7.7h-2zM13.5 8.7h2v7.7h-2z"/></svg><svg viewBox="0 0 22 22" id="delivery" xmlns="http://www.w3.org/2000/svg"><path d="M11 0L0 4.075v13.85L11 22l11-4.075V4.075zm-.859 19.849l-8.422-3.12V5.908l8.422 3.12zM3.334 4.674L11 1.833l7.666 2.84L11 7.513zm16.948 12.055l-8.422 3.12V9.029l8.422-3.12z"/></svg><svg viewBox="0 0 9.4 6.1" id="dropdown" xmlns="http://www.w3.org/2000/svg"><path d="M4.7 6.1l4.7-4.7V0H8L4.7 3.3 1.4 0H0v1.4z"/></svg><svg viewBox="0 0 22 22" id="edit" xmlns="http://www.w3.org/2000/svg"><path d="M17.538 11.77L19.5 9.807V22H0V2.5h12.193L10.23 4.461H1.963v15.576h15.575zM4.287 13.181L17.468 0 22 4.532 8.819 17.713H4.287zm13.181-10.4L16 4.239l1.756 1.756 1.463-1.463zM6.251 15.749h1.756l8.366-8.366-1.756-1.756-8.366 8.366z"/></svg><svg viewBox="0 0 22 22" id="eye" xmlns="http://www.w3.org/2000/svg"><path d="M21.607 10.566c-.192-.274-4.75-6.693-10.607-6.693S.584 10.292.393 10.566L0 11.128l.393.562c.191.273 4.749 6.692 10.607 6.692s10.415-6.419 10.607-6.692l.393-.562zM11 16.422c-3.926 0-7.386-3.827-8.568-5.294C3.614 9.661 7.074 5.834 11 5.834s7.387 3.828 8.569 5.295C18.39 12.6 14.938 16.422 11 16.422zm3.86-7.767a4.615 4.615 0 00-.608-.754l.008-.001a4.687 4.687 0 00-.776-.619l-.011-.008A4.55 4.55 0 0011 6.534a4.594 4.594 0 000 9.189 4.54 4.54 0 002.47-.739c.008-.005.013-.012.021-.017a4.672 4.672 0 00.777-.624l-.008-.005a4.683 4.683 0 00.6-.74l-.328-.328-2.147-2.146 1.683-1.682zm-6.494 2.473A2.637 2.637 0 0111 8.495a2.564 2.564 0 011.025.222L11 9.743l-1.387 1.386L11 12.515l1.025 1.025a2.541 2.541 0 01-1.025.222 2.637 2.637 0 01-2.634-2.634z"/></svg><svg viewBox="0 0 22 22" id="eye_closed" xmlns="http://www.w3.org/2000/svg"><path d="M21.607 10.566a20.876 20.876 0 00-4.314-4.345L18.7 4.812A17.352 17.352 0 0017.04 3.7L15.6 5.146A9.688 9.688 0 0011 3.873C5.142 3.873.584 10.292.393 10.566L0 11.128l.393.562a20.818 20.818 0 004.314 4.345L3.3 17.446a17.167 17.167 0 001.663 1.11L6.4 17.11a9.691 9.691 0 004.6 1.272c5.857 0 10.415-6.419 10.607-6.692l.393-.562zm-19.175.562C3.614 9.661 7.074 5.834 11 5.834a7.4 7.4 0 013.14.768l-.667.667A4.55 4.55 0 0011 6.534 4.58 4.58 0 007.14 13.6l-1.029 1.03a19.029 19.029 0 01-3.679-3.502zM11 12.514l1.025 1.025a2.541 2.541 0 01-1.025.223 2.628 2.628 0 01-1.035-.213zm0-2.771l-.068.067-2.353 2.353A2.631 2.631 0 0111 8.495a2.564 2.564 0 011.025.222zm0 6.679a7.4 7.4 0 01-3.14-.768l.666-.666a4.514 4.514 0 004.944 0c.008-.005.013-.012.021-.017a4.672 4.672 0 00.777-.624l-.008-.005a4.683 4.683 0 00.6-.74l-.328-.328-2.147-2.146 1.763-1.763.711-.71 1.029-1.03a19.039 19.039 0 013.68 3.5C18.39 12.6 14.938 16.422 11 16.422z"/></svg><svg viewBox="0 0 12.3 24" id="facebook" xmlns="http://www.w3.org/2000/svg"><path d="M9.4 0C6 0 4 1.8 4 5.9V8H0v4h4v12h4V12h3.7l.6-4H8V6.3C8 4.8 8.5 4 10 4h2.3V.2A14.033 14.033 0 009.4 0z"/></svg><svg viewBox="0 0 22 22" id="favorite" xmlns="http://www.w3.org/2000/svg"><path d="M17.1 1.1A5.637 5.637 0 0011 3.9a5.637 5.637 0 00-6.1-2.8A6.128 6.128 0 001.7 3C-3.7 9.6 9.1 19.6 11 21c1.9-1.5 14.7-11.4 9.3-18a6.128 6.128 0 00-3.2-1.9zM11 18.5c-3.7-3-8.6-8-8.6-11.8A3.63 3.63 0 016.1 3a2.769 2.769 0 01.9.1A4.147 4.147 0 019.4 5a5.783 5.783 0 01.5 1.4l.1.8h2l.2-.8a7.838 7.838 0 01.5-1.4 4.147 4.147 0 012.4-1.9 3.55 3.55 0 014.4 2.7 2.769 2.769 0 01.1.9c0 3.8-4.9 8.8-8.6 11.8z"/></svg><svg viewBox="0 0 22 20.9" id="filter" xmlns="http://www.w3.org/2000/svg"><path d="M5.3 4.4H0v-2h5.3A3.33 3.33 0 018.5 0a3.465 3.465 0 013.2 2.3H22v2H11.7a3.33 3.33 0 01-3.2 2.4 3.366 3.366 0 01-3.2-2.3zm4.6-1A1.43 1.43 0 008.5 2a1.367 1.367 0 00-1.4 1.4 1.347 1.347 0 001.4 1.3 1.344 1.344 0 001.4-1.3zm12.1 6h-5.5a3.333 3.333 0 00-6.4 0H0v2h10.1a3.333 3.333 0 006.4 0H22zm-7.3 1a1.43 1.43 0 01-1.4 1.4 1.344 1.344 0 01-1.3-1.4A1.415 1.415 0 0113.3 9a1.43 1.43 0 011.4 1.4zm7.3 6.1H11.7a3.333 3.333 0 00-6.4 0H0v2h5.3a3.333 3.333 0 006.4 0H22zm-12.2 1a1.4 1.4 0 01-2.8 0 1.4 1.4 0 012.8 0z"/></svg><svg viewBox="0 0 15.1 15.1" id="headphones" xmlns="http://www.w3.org/2000/svg"><path d="M7.55 0A7.559 7.559 0 000 7.55v5.25a2.3 2.3 0 002.3 2.3h.75a2.3 2.3 0 002.3-2.3v-2.25a2.3 2.3 0 00-2.3-2.3H1.6v-.7a5.95 5.95 0 1111.9 0v.7h-1.45a2.3 2.3 0 00-2.3 2.3v2.25a2.3 2.3 0 002.3 2.3h.75a2.3 2.3 0 002.3-2.3V7.55A7.559 7.559 0 007.55 0zm-4.5 9.85a.7.7 0 01.7.7v2.25a.7.7 0 01-.7.7H2.3a.7.7 0 01-.7-.7V9.85zM13.5 12.8a.7.7 0 01-.7.7h-.75a.7.7 0 01-.7-.7v-2.25a.7.7 0 01.7-.7h1.45v2.95z"/></svg><svg viewBox="0 0 16 15.763" id="help" xmlns="http://www.w3.org/2000/svg"><path d="M7.111 12.681h1.541v-1.54H7.111zM7.941 0A9.464 9.464 0 004.86.593 9.491 9.491 0 002.37 2.37 7.52 7.52 0 000 7.941a7.52 7.52 0 002.37 5.57 7.533 7.533 0 002.608 1.659 8.9 8.9 0 003.081.593 7.52 7.52 0 005.57-2.37 7.714 7.714 0 002.37-5.57 9.463 9.463 0 00-.593-3.081 8.821 8.821 0 00-1.659-2.607A7.533 7.533 0 0011.14.476 16.088 16.088 0 007.941 0zm0 14.222a6.281 6.281 0 116.281-6.281 6.323 6.323 0 01-6.281 6.281zm0-11.022a3.238 3.238 0 00-3.2 3.2h1.54a1.155 1.155 0 01.474-1.067A1.646 1.646 0 017.94 4.74a1.155 1.155 0 011.067.474A1.522 1.522 0 019.481 6.4c0 1.541-2.37 1.422-2.37 3.911h1.541c0-1.778 2.37-2.015 2.37-3.911a3.238 3.238 0 00-.948-2.252A2.775 2.775 0 007.941 3.2z"/></svg><svg viewBox="0 0 20.001 20" id="inst" xmlns="http://www.w3.org/2000/svg"><path d="M9.951 5.95c-5.358 0-5.349 8.117 0 8.117s5.352-8.117 0-8.117z"/><path d="M19.838 14.92C20.567-1.149 19.246.007 8.867.02.767.028.004.182.004 9.998c0 9.7.278 9.981 9.952 9.981 5.303.001 9.619.625 9.882-5.059zm-3.4-12.875a1.46 1.46 0 11-1.456 1.46 1.459 1.459 0 011.451-1.46zm-6.481 14.21a6.252 6.252 0 010-12.5 6.252 6.252 0 010 12.5z"/></svg><svg viewBox="0 0 20 20" id="katalog" xmlns="http://www.w3.org/2000/svg"><path d="M0 0h3.6v3.6H0zm8.2 0h3.6v3.6H8.2zm8.2 0H20v3.6h-3.6zM0 8.2h3.6v3.6H0zm8.2 0h3.6v3.6H8.2zm8.2 0H20v3.6h-3.6zM0 16.4h3.6V20H0zm8.2 0h3.6V20H8.2zm8.2 0H20V20h-3.6z"/></svg><svg viewBox="0 0 21 22" id="like" xmlns="http://www.w3.org/2000/svg"><path d="M9.01.6a1 1 0 01.915-.6 3.99 3.99 0 013.98 4v3h4.1a2.986 2.986 0 012.866 2.069.992.992 0 01.051.146v.005a1.452 1.452 0 01.04.206c.014.1.021.217.025.312.008.19.008.407.008.552v.009a1 1 0 01-.011.15l-1.37 8.992a2.988 2.988 0 01-2.98 2.548H5.952L2.991 22h-.005A2.993 2.993 0 010 19v-7a2.993 2.993 0 012.984-3H5.3L9.01.6zM4.953 11l-1.961.01h-.005a.98.98 0 00-.7.29 1 1 0 00-.287.706V19a1 1 0 00.291.709.98.98 0 00.694.29l1.966-.01V11zm2 8.988h9.7a.979.979 0 00.648-.235 1 1 0 00.338-.613L19 10.218q0-.241-.01-.482l-.007-.022a1 1 0 00-.545-.632.976.976 0 00-.413-.087H12.9a1 1 0 01-1-1V4a2.012 2.012 0 00-.581-1.415 1.976 1.976 0 00-.79-.486L6.953 10.2v9.781zM18.986 9.684z"/></svg><svg viewBox="0 0 22 22" id="list" xmlns="http://www.w3.org/2000/svg"><path d="M7.9 2v5.9H2V2h5.9m2-2H0v9.9h9.9V0zM22 1.6h-9.9v2H22zm0 4.7h-9.9v2H22zM7.9 14.1V20H2v-5.9h5.9m2-2H0V22h9.9v-9.9zM22 13.7h-9.9v2H22zm0 4.7h-9.9v2H22z"/></svg><svg viewBox="0 0 22 22" id="lock" xmlns="http://www.w3.org/2000/svg"><path d="M7.083 6.34v-.423a3.918 3.918 0 017.58-1.393l1.869-.711a5.918 5.918 0 00-11.449 2.1v.427H1.368V22h19.264V6.34zM18.632 20H3.368V8.34h15.264z"/><path d="M10 15.662v3.319h2v-3.319a2.821 2.821 0 10-2 0zm1-3.451a.821.821 0 11-.821.821.822.822 0 01.821-.821z"/></svg><svg viewBox="0 0 22 22" id="login" xmlns="http://www.w3.org/2000/svg"><path d="M14.3 10.8a5.76 5.76 0 002.1-4.3A5.463 5.463 0 0011 1a5.485 5.485 0 00-3.3 9.8 8.646 8.646 0 00-5.2 8V20a.9.9 0 00.9.9h15.1a.9.9 0 00.9-.9v-1.2a8.659 8.659 0 00-5.1-8zM7.4 6.5A3.738 3.738 0 0111 2.8a3.671 3.671 0 013.6 3.7 3.738 3.738 0 01-3.6 3.7 3.738 3.738 0 01-3.6-3.7zm10.3 12.7H4.3v-.3a6.722 6.722 0 016.7-6.8 6.852 6.852 0 016.7 6.8z"/></svg><svg viewBox="0 0 39.903 40" id="map-pin" xmlns="http://www.w3.org/2000/svg"><path d="M19.946 0a11.851 11.851 0 00-3.266.459C10.16 2.328 6.263 9.602 8.794 15.78a59.594 59.594 0 007.131 12.188c1.263 1.751 2.619 3.433 4.058 5.31 1.23-1.581 2.355-2.953 3.4-4.383 3.017-4.133 5.925-8.332 7.817-13.136a10.908 10.908 0 00.531-6.373A12.037 12.037 0 0019.946 0zm.026 14.028h-.071a1.981 1.981 0 01-1.875-2.042 1.986 1.986 0 011.946-1.981h.093a1.989 1.989 0 011.879 2.037 1.986 1.986 0 01-1.972 1.984z"/><path d="M34.316 21.927h-3.888a87.6 87.6 0 01-5.43 8.147c-.733 1-1.491 1.964-2.3 2.981-.37.469-.75.949-1.141 1.452l-1.59 2.043-1.576-2.055c-.455-.594-.9-1.168-1.34-1.731-.962-1.236-1.871-2.4-2.752-3.626a79.448 79.448 0 01-4.713-7.211h-4L0 40h39.9z"/><path d="M19.947 2a9.973 9.973 0 019.825 7.792 8.916 8.916 0 01-.428 5.233c-1.833 4.645-4.748 8.816-7.577 12.69a77.659 77.659 0 01-1.772 2.314c-.859-1.1-1.674-2.157-2.448-3.231a58.119 58.119 0 01-6.9-11.776 8.894 8.894 0 01.339-7.329 10.067 10.067 0 016.245-5.307 9.823 9.823 0 012.716-.382m.025 14.028a3.967 3.967 0 003.972-3.949 3.974 3.974 0 00-3.781-4.069h-.191a4 4 0 00-3.946 3.956 4 4 0 003.806 4.064h.14M19.946 0a11.851 11.851 0 00-3.266.459C10.16 2.328 6.263 9.602 8.794 15.78a59.594 59.594 0 007.131 12.188c1.263 1.751 2.619 3.433 4.058 5.31 1.23-1.581 2.355-2.953 3.4-4.383 3.017-4.133 5.925-8.332 7.817-13.136a10.908 10.908 0 00.531-6.373A12.037 12.037 0 0019.946 0zm.026 14.028h-.071a1.981 1.981 0 01-1.875-2.042 1.986 1.986 0 011.946-1.981h.093a1.989 1.989 0 011.879 2.037 1.986 1.986 0 01-1.972 1.984z"/><path d="M34.316 21.927h-3.888a60.082 60.082 0 01-1.2 2h3.615L37.193 38H2.712l4.35-14.073h3.721c-.4-.651-.8-1.315-1.193-2h-4L0 40h39.9z"/></svg><svg viewBox="0 0 22 22" id="navigation" xmlns="http://www.w3.org/2000/svg"><path d="M11.92 10.08l-1.12 2.428-.005-.017-.315-.973-.971-.318h-.017l2.428-1.12M16 6L4 11.525l4.894 1.581L10.475 18 16 6z"/><path d="M18.75 7.526a8.528 8.528 0 11-4.23-4.254l1.491-1.5a10.5 10.5 0 104.235 4.251z"/></svg><svg viewBox="0 0 22 22" id="pay" xmlns="http://www.w3.org/2000/svg"><path d="M.1 3.1v15.8h21.8V3.1zm20 1.8v2.908H1.9V4.9zM1.9 17.1V9.608h18.2V17.1zm2.7-4.708h6v1.8h-6z"/></svg><svg viewBox="0 0 50 50" id="phone" xmlns="http://www.w3.org/2000/svg"><path d="M0 0h50v50H0z"/><path d="M32 35.064L29.87 37.2a26.842 26.842 0 01-10.545-6.523A27 27 0 0112.8 20.129L14.936 18 6.4 9.461 0 15.862a53.848 53.848 0 0013.042 21.1A53.96 53.96 0 0034.138 50l6.4-6.4z"/><path d="M39.014 0a10.988 10.988 0 00-9.875 15.807l-1.113 5.223 5.169-.722A10.987 10.987 0 1039.014 0zm0 19.974a8.969 8.969 0 01-4.759-1.362l-.616-.386-.721.1-2.341.327.518-2.431.144-.675-.3-.62a8.9 8.9 0 01-.909-3.942 8.987 8.987 0 118.988 8.988zM36.263 30.8L32.7 34.357l-1.41 1.414-1.42 1.429a26.842 26.842 0 01-10.545-6.523A27 27 0 0112.8 20.129L14.936 18l4.264-4.272L10.666 5.2l-3.56 3.56-1.414 1.409L0 15.862a53.848 53.848 0 0013.042 21.1A53.96 53.96 0 0034.138 50l6.4-6.4v-.006l.7-.7 3.559-3.56zM10.666 8.024l5.7 5.7-2.145 2.146-5.7-5.7zM33.609 47.7a52.245 52.245 0 01-19.153-12.157A52.154 52.154 0 012.3 16.391l4.807-4.808 5.707 5.706-.2.2-1.227 1.226-.874.874.39 1.172A29.033 29.033 0 0029.242 39.1l1.17.387.872-.872 1.424-1.423 5.7 5.705-.288.29zm.511-11.927l.705-.708 1.438-1.438 5.7 5.7-2.145 2.145zm-1.7-25.815h2.708v2h-2.711zm5.242 0h2.708v2h-2.711zm7.95 0v2H42.9v-2z"/></svg><svg viewBox="0 0 22 22" id="photo" xmlns="http://www.w3.org/2000/svg"><path d="M16.666 4.088L14.822 1.22H7.177L5.334 4.088H0v16.691h22V4.088zM20 18.779H2V6.088h4.426L8.269 3.22h5.461l1.844 2.868H20zM11 6.142a5.987 5.987 0 105.987 5.987A5.994 5.994 0 0011 6.142zm0 9.974a3.987 3.987 0 113.987-3.987A3.991 3.991 0 0111 16.116z"/></svg><svg viewBox="0 0 22.12 22" id="prize" xmlns="http://www.w3.org/2000/svg"><path d="M4.52 19.3h12.9v2.4H4.52v-2.4zm-1.5-10l-1.5-1v-5h1.5V1.8h-3v7.3l3.5 2.2a6.529 6.529 0 01-.5-2zm16-7.5v1.5h1.5v4.9l-1.5 1a15.529 15.529 0 01-.4 2.1l3.5-2.2V1.8zM4.52.3h12.9v4.5H4.52V.3zm2 12.8a8.31 8.31 0 012.3 4.9h4.4a8.043 8.043 0 012.3-4.9 6.966 6.966 0 002-4.9V5.9H4.62v2.3a6.333 6.333 0 001.9 4.9z"/></svg><svg viewBox="0 0 22 22.008" id="review" xmlns="http://www.w3.org/2000/svg"><path d="M14.8 14.633l-3.8-2-3.8 2 .725-4.233-3.074-3L9.1 6.786 11 2.937l1.9 3.849 4.249.618-3.075 3zM11 10.375l1.144.6-.218-1.275.925-.9-1.279-.186L11 7.455l-.572 1.159-1.279.186.926.9-.219 1.274zm0 11.633l-2.255-3.926H0V0h22v18.082h-8.745zm-9-5.926h7.9l1.1 1.91 1.1-1.91H20V2H2z"/></svg><svg viewBox="0 0 17.708 18.001" id="search" xmlns="http://www.w3.org/2000/svg"><path d="M17.413 17.699a1 1 0 01-1.418.014l-.014-.014-2.936-2.984a7.933 7.933 0 01-10.675-.657 8.339 8.339 0 010-11.646 8.013 8.013 0 0111.461 0 8.254 8.254 0 01.646 10.847l2.935 2.985a1.039 1.039 0 010 1.454zM12.398 3.867a6.007 6.007 0 00-8.6 0 6.254 6.254 0 000 8.736 6.008 6.008 0 008.594 0 6.245 6.245 0 000-8.736z"/></svg><svg viewBox="0 0 18 18" id="sort" xmlns="http://www.w3.org/2000/svg"><path d="M18 15.1H0v-2h18zM11.9 8H0v2h11.9zm-6-5.1H0v2h5.9z"/></svg><svg viewBox="0 0 19 18" id="star" xmlns="http://www.w3.org/2000/svg"><path d="M9.5 0l2.243 6.875H19l-5.871 4.249L15.372 18 9.5 13.751 3.629 18l2.243-6.875L0 6.875h7.258z"/></svg><svg viewBox="0 0 22 22" id="table" xmlns="http://www.w3.org/2000/svg"><path d="M7.9 2v5.9H2V2h5.9m2-2H0v9.9h9.9V0zm-2 14.1V20H2v-5.9h5.9m2-2H0V22h9.9v-9.9zM20 2v5.9h-5.9V2H20m2-2h-9.9v9.9H22V0zm-2 14.1V20h-5.9v-5.9H20m2-2h-9.9V22H22v-9.9z"/></svg><svg viewBox="0 0 23.94 20.021" id="telegram" xmlns="http://www.w3.org/2000/svg"><path d="M9.376 13.121l-.4 5.6a1.29 1.29 0 001.1-.5l2.7-2.5 5.5 4c1 .6 1.7.3 2-.9l3.6-17c.3-1.5-.5-2.1-1.5-1.7l-21.3 8.1c-1.4.5-1.4 1.3-.2 1.7l5.4 1.7 12.7-7.9c.6-.4 1.1-.2.7.2z"/></svg><svg viewBox="0 0 22.1 22" id="update" xmlns="http://www.w3.org/2000/svg"><path d="M19.2 18.3l1.6 1.6-4.5-.1v-4.5l1.6 1.6a8.972 8.972 0 002.2-5.9 9.112 9.112 0 00-9-9.1v-.2H11V.3h.1V0a11.032 11.032 0 0111 11 11.64 11.64 0 01-2.9 7.3zM1.9 11a8.781 8.781 0 012.2-5.9l1.6 1.6V2.3l-4.5-.1 1.6 1.6A10.3 10.3 0 000 11a10.968 10.968 0 0011 11v-1.9A9.133 9.133 0 011.9 11z"/></svg><svg viewBox="0 0 23.926 12.8" id="vk" xmlns="http://www.w3.org/2000/svg"><path d="M4.189 0h-3.4a1.232 1.232 0 00-.7.2c-.2.2 0 .5 0 .5s2.6 6.2 5.5 9.3a8.089 8.089 0 006.1 2.8h1.1c.6 0 .9-.1.9-.4 0-.9 0-1.8.7-2.1.9-.3 2.1 1.3 3.3 2a3.088 3.088 0 001.6.5h3.5s1.7-.2.9-1.4a19.537 19.537 0 00-2.4-2.4c-2-1.8-1.7-1.5.7-4.6 1.5-1.9 2.1-3.6 1.9-4.1 0-.3-.6-.3-1.2-.3h-3.6a.749.749 0 00-.5.1.747.747 0 00-.3.3 16.91 16.91 0 01-1.4 3.3c-1.6 2.6-2.5 2.4-2.8 2.2-.6-.4-.5-1.5-.5-2.3 0-2.5.3-3.2-.9-3.5-.3 0-.6-.1-1.6-.1a7.939 7.939 0 00-2.6.3c-.4.2-.7.5-.5.5a1.737 1.737 0 011.1.6 2.8 2.8 0 01.3 1.6s.2 2.5-.5 2.9c-.4.2-1.1.2-2.5-2.2a12.452 12.452 0 01-1.3-3.1 1.866 1.866 0 01-.3-.4z"/></svg><svg viewBox="0 0 18 16.273" id="warning" xmlns="http://www.w3.org/2000/svg"><path d="M1.425 16.273h15.156a1.418 1.418 0 001.263-2.061L10.266.784a1.421 1.421 0 00-2.54 0L.148 14.211a1.43 1.43 0 001.277 2.062zm8.769-3.122a1.234 1.234 0 01-2.468 0v-.029a1.234 1.234 0 012.468 0zm-1.9-9.073h1.42a.614.614 0 01.581.755l-.624 5.458a.668.668 0 01-1.336 0l-.624-5.458a.614.614 0 01.581-.754z"/></svg><svg viewBox="0 0 24 17" id="youtube" xmlns="http://www.w3.org/2000/svg"><path d="M23.506 2.659A3.026 3.026 0 0021.39.519C19.512-.001 12-.001 12-.001s-7.512 0-9.39.5a3.087 3.087 0 00-2.116 2.16 34.766 34.766 0 000 11.68A3.028 3.028 0 002.61 16.48C4.51 17 12 17 12 17s7.512 0 9.39-.5a3.023 3.023 0 002.116-2.14A32.427 32.427 0 0024 8.521a30.781 30.781 0 00-.494-5.862z"/><path fill="#fff" d="M9.608 12.14l6.247-3.64-6.247-3.64z"/></svg><svg id="icon-percent" viewBox="0 0 32 32">
<path fill="none" stroke="#ee8d10" style="stroke: var(--color1, #ee8d10)" stroke-linejoin="round" stroke-linecap="butt" stroke-miterlimit="4" stroke-width="2.4615" d="M28.923 3.077l-25.846 25.846"></path>
<path fill="none" stroke="#ee8d10" style="stroke: var(--color1, #ee8d10)" stroke-linejoin="round" stroke-linecap="butt" stroke-miterlimit="4" stroke-width="2.4615" d="M10.462 5.846c0 2.549-2.066 4.615-4.615 4.615s-4.615-2.066-4.615-4.615c0-2.549 2.066-4.615 4.615-4.615v0c2.549 0 4.615 2.066 4.615 4.615v0z"></path>
<path fill="none" stroke="#ee8d10" style="stroke: var(--color1, #ee8d10)" stroke-linejoin="round" stroke-linecap="butt" stroke-miterlimit="4" stroke-width="2.4615" d="M30.769 26.154c0 2.549-2.066 4.615-4.615 4.615s-4.615-2.066-4.615-4.615c0-2.549 2.066-4.615 4.615-4.615v0c2.549 0 4.615 2.066 4.615 4.615v0z"></path>
</svg>
<svg id="icon-truck" viewBox="0 0 39 32">
<path fill="none" stroke="#ee8d10" style="stroke: var(--color1, #ee8d10)" stroke-linejoin="miter" stroke-linecap="butt" stroke-miterlimit="4" stroke-width="2.75" d="M1.375 1.375h24.374v21.125h-24.374z"></path>
<path fill="none" stroke="#ee8d10" style="stroke: var(--color1, #ee8d10)" stroke-linejoin="miter" stroke-linecap="butt" stroke-miterlimit="4" stroke-width="2.75" d="M25.749 9.5h6.5l4.874 4.874v8.125h-11.374z"></path>
<path fill="none" stroke="#ee8d10" style="stroke: var(--color1, #ee8d10)" stroke-linejoin="miter" stroke-linecap="butt" stroke-miterlimit="4" stroke-width="2.75" d="M12.75 26.563c0 2.244-1.819 4.063-4.063 4.063s-4.063-1.819-4.063-4.063c0-2.244 1.819-4.063 4.063-4.063 0 0 0.001 0 0.001 0h-0c2.244 0 4.063 1.819 4.063 4.063v0z"></path>
<path fill="none" stroke="#ee8d10" style="stroke: var(--color1, #ee8d10)" stroke-linejoin="miter" stroke-linecap="butt" stroke-miterlimit="4" stroke-width="2.75" d="M33.874 26.563c0 2.244-1.819 4.063-4.063 4.063s-4.063-1.819-4.063-4.063c0-2.244 1.819-4.063 4.063-4.063 0 0 0.001 0 0.001 0h-0c2.244 0 4.063 1.819 4.063 4.063v0z"></path>
</svg>
<svg id="icon-pointer" viewBox="0 0 23 32">
<path fill="#ffa22a" style="fill: var(--color1, #ffa22a)" d="M11.473 0c-0.001 0-0.002 0-0.003 0-1.118 0-2.198 0.161-3.219 0.461l0.081-0.020c-6.269 1.797-10.017 8.786-7.583 14.733 1.972 4.474 4.268 8.328 6.965 11.86l-0.102-0.139c1.214 1.684 2.519 3.301 3.902 5.106 1.182-1.521 2.264-2.84 3.269-4.214 2.888-3.653 5.405-7.811 7.374-12.265l0.145-0.368c0.473-1.152 0.748-2.489 0.748-3.89 0-0.792-0.088-1.564-0.254-2.306l0.013 0.070c-1.205-5.205-5.802-9.026-11.291-9.026-0.014 0-0.029 0-0.043 0h0.002zM11.501 13.49h-0.072c-1.006-0.056-1.801-0.886-1.801-1.901 0-0.020 0-0.040 0.001-0.060l-0 0.003c0-0 0-0 0-0 0-1.042 0.834-1.888 1.87-1.909l0.002-0h0.089c1.010 0.057 1.808 0.89 1.808 1.91 0 0.017-0 0.034-0.001 0.051l0-0.003c0 0 0 0 0 0 0 1.050-0.848 1.902-1.896 1.91h-0.001z"></path>
<path fill="#1b1b1b" style="fill: var(--color2, #1b1b1b)" d="M11.473 1.923v0c0.027-0 0.059-0 0.091-0 4.552 0 8.363 3.172 9.344 7.425l0.013 0.065c0.128 0.556 0.202 1.194 0.202 1.85 0 1.148-0.225 2.242-0.634 3.243l0.021-0.057c-2.055 4.658-4.492 8.673-7.371 12.323l0.091-0.119c-0.537 0.737-1.106 1.468-1.704 2.225-0.827-1.061-1.61-2.074-2.353-3.107-2.507-3.279-4.729-7.002-6.502-10.97l-0.142-0.355c-0.382-0.935-0.604-2.021-0.604-3.158 0-1.42 0.346-2.759 0.958-3.937l-0.022 0.048c1.196-2.463 3.335-4.311 5.935-5.095l0.069-0.018c0.781-0.233 1.679-0.367 2.608-0.367 0.001 0 0.002 0 0.003 0h-0zM11.501 15.412c0 0 0.001 0 0.001 0 2.101 0 3.805-1.698 3.815-3.797v-0.001c0.001-0.029 0.001-0.063 0.001-0.097 0-2.045-1.607-3.715-3.627-3.816l-0.009-0c-0.062 0-0.122 0-0.184 0-2.087 0.027-3.771 1.713-3.795 3.799l-0 0.002c-0 0.020-0.001 0.044-0.001 0.068 0 2.056 1.615 3.736 3.645 3.839l0.009 0h0.134zM11.466-0.001c-1.117 0.001-2.195 0.162-3.215 0.463l0.081-0.020c-6.269 1.797-10.017 8.786-7.583 14.733 1.972 4.474 4.268 8.328 6.965 11.86l-0.102-0.139c1.214 1.684 2.519 3.301 3.902 5.106 1.182-1.521 2.264-2.84 3.269-4.214 2.888-3.653 5.405-7.811 7.374-12.265l0.145-0.368c0.473-1.152 0.748-2.489 0.748-3.89 0-0.792-0.088-1.564-0.254-2.306l0.013 0.070c-1.205-5.205-5.802-9.026-11.291-9.026-0.014 0-0.029 0-0.043 0h0.002zM11.501 13.49h-0.072c-1.006-0.056-1.801-0.886-1.801-1.901 0-0.020 0-0.040 0.001-0.060l-0 0.003c0-0 0-0 0-0 0-1.042 0.834-1.888 1.87-1.909l0.002-0h0.089c1.010 0.057 1.808 0.89 1.808 1.91 0 0.017-0 0.034-0.001 0.051l0-0.003c0 0 0 0 0 0 0 1.050-0.848 1.902-1.896 1.91h-0.001z"></path>
</svg>
<svg id="icon-checkbox" viewBox="0 0 40 32">
<defs xmlns="http://www.w3.org/2000/svg"><style>.a{fill:none;stroke:#242424;stroke-width:4px;transform="translate(-15.06 -13.798)}</style></defs>
<path class="a" stroke-linejoin="miter" stroke-linecap="butt" stroke-miterlimit="4"  stroke-width="7.215" d="M2.644 13.615l12.139 13.082 22.494-24.242"></path>
</svg></svg>


